<?xml version="1.0" encoding="utf-8"?>
<!-- Generator: Adobe Illustrator 19.0.0, SVG Export Plug-In . SVG Version: 6.00 Build 0)  -->
<svg version="1.1" id="Calque_1" xmlns="http://www.w3.org/2000/svg" xmlns:xlink="http://www.w3.org/1999/xlink" x="0px" y="0px"
	 viewBox="-525 128.9 388 444.1" style="enable-background:new -525 128.9 388 444.1;" xml:space="preserve">
<style type="text/css">
	.st0{fill:#FFFFFF;}
</style>
<g>
	<path d="M-330.9,442.4c-8.8,0-17.5-0.5-25.9-1.4c-23.4,20.7-51.2,35.3-82.1,43.2c-6.4,1.8-13.4,3-20.4,3.9
		c-3.9,0.4-7.7-2.5-8.6-6.8c0-0.2,0-0.2,0-0.2c-0.9-4.5,2.1-7.1,4.8-10.4c11.3-12.7,24.1-23.4,32.5-53.2
		c-36.8-20.9-60.4-53.2-60.4-89.5c0-63,71.6-114.3,160-114.3s160,51.1,160,114.3S-242.5,442.4-330.9,442.4z"/>
</g>
<g>
	<g>
		<path class="st0" d="M-326.5,319.7v-39c0-5.1-4.1-9.3-9.3-9.3s-9.3,4.1-9.3,9.3v39h-37.5c-5.1,0-9.3,4.1-9.3,9.3
			c0,5.1,4.1,9.3,9.3,9.3h37.5v39c0,5.1,4.1,9.3,9.3,9.3s9.3-4.1,9.3-9.3v-39h40.5c5.1,0,9.3-4.1,9.3-9.3c0-5.1-4.1-9.3-9.3-9.3
			L-326.5,319.7z"/>
	</g>
</g>
</svg>
