<?xml version="1.0" encoding="utf-8"?>
<!-- Generator: Adobe Illustrator 19.0.0, SVG Export Plug-In . SVG Version: 6.00 Build 0)  -->
<svg version="1.1" id="Calque_1" xmlns="http://www.w3.org/2000/svg" xmlns:xlink="http://www.w3.org/1999/xlink" x="0px" y="0px"
	 viewBox="-669 288 100 79.6" style="enable-background:new -669 288 100 79.6;" xml:space="preserve">
<style type="text/css">
	.st0{display:none;}
	.st1{fill:#FFFFFF;}
</style>
<title>46 all</title>
<g>
	<path d="M-579.2,302.3c-2.1-1.1-4.7-1.1-6.7,0.2l-14.6,9.4c-0.5-6.7-6.1-11.9-12.8-11.9h-36.2c-7.1,0.1-12.8,5.8-12.8,12.9v30
		c0,7.1,5.7,12.8,12.8,12.8h36.3c6.7,0,12.3-5.2,12.8-11.9l14.6,9.4c2,1.3,4.6,1.4,6.7,0.2c2.2-1.2,3.5-3.5,3.5-5.9v-39.3
		C-575.8,305.8-577,303.5-579.2,302.3z"/>
</g>
<g>
	<g>
		<path class="st0" d="M-641.4,404.3c-45.1,0-81.6-36.5-81.6-81.6s36.5-81.6,81.6-81.6s81.6,36.5,81.6,81.6l0,0
			C-559.8,367.7-596.3,404.2-641.4,404.3z M-641.4,249c-40.7,0-73.6,33-73.6,73.6s33,73.6,73.6,73.6s73.6-33,73.6-73.6
			C-567.8,282-600.7,249-641.4,249z"/>
		<path class="st1" d="M-629.8,325.2v-11c0-1.4-1.2-2.6-2.6-2.6c-1.4,0-2.6,1.2-2.6,2.6v11h-10.6c-1.4,0-2.6,1.2-2.6,2.6
			c0,1.4,1.2,2.6,2.6,2.6h10.6v11c0,1.4,1.2,2.6,2.6,2.6s2.6-1.2,2.6-2.6v-11h11.5c1.4,0,2.6-1.2,2.6-2.6s-1.2-2.6-2.6-2.6
			L-629.8,325.2z"/>
	</g>
</g>
</svg>
