<svg width="18" height="25" viewBox="0 0 18 25" fill="none" xmlns="http://www.w3.org/2000/svg">
<path d="M6.12194 24.7686C6.54382 24.9334 7.27506 25.2447 7.27506 24.6588C7.27506 24.4116 7.06881 24.3933 6.87194 24.3292C6.07507 24.0179 5.55944 23.6242 5.08132 22.9376C4.31258 21.8298 4.13445 20.722 4.13445 19.4037C4.13445 16.4649 8.27818 15.9339 8.27818 12.9951C8.27818 11.869 7.55631 11.5394 7.55631 11.2281C7.55631 11.0267 7.62193 11.0267 7.82818 11.0267C8.57818 11.0267 9.6188 12.2444 9.93754 12.8394C10.1438 13.2606 10.1625 13.3888 10.1625 13.8557C10.1625 14.4965 10.0969 15.1557 10.0969 15.8057C10.0969 18.2776 13.0875 17.6184 13.0875 16.4283C13.0875 15.879 12.75 15.3663 12.75 14.8353C12.75 14.7712 12.75 14.7254 12.8157 14.7254C13.1344 14.7254 13.6969 15.4304 13.8563 15.6501C14.4 16.4649 14.6531 17.5543 14.6531 18.5248C14.6531 21.4911 11.8875 23.0108 11.8875 23.6517C11.8875 23.7432 12.1594 24.3566 13.0219 23.8256C15.8063 22.4432 18 19.4678 18 15.6043C18 12.5282 17.1844 10.3218 14.9906 8.04213C14.625 7.66677 13.4532 6.49491 12.8813 6.49491C12.1125 6.49491 13.5563 8.19777 13.5563 9.35132C13.5563 10.0105 13.1063 10.4774 12.4032 10.4774C11.3157 10.4774 11.0438 8.15199 10.9125 7.42874C10.3688 4.33429 9.71255 2.10043 6.56256 0.644758C5.58757 0.187 3.14071 -0.435552 3.14071 0.443344C3.14071 0.663068 3.39383 0.818706 3.57195 0.910257C4.43445 1.42295 5.40944 2.86946 5.40944 4.40753C5.40944 8.62806 9.87632e-05 12.4824 9.87632e-05 16.8769C-0.0186511 20.5664 2.63446 23.5235 6.12194 24.7686Z" fill="#F2B760"/>
</svg>
